HIERARCHY
ROOT Hips
{
 OFFSET 0.000000 0.000000 0.000000
 CHANNELS 6 Xposition Yposition Zposition Yrotation Xrotation Zrotation
 JOINT Chest
 {
  OFFSET 0.000000 9.585900 0.002600
  CHANNELS 3 Yrotation Xrotation Zrotation
  JOINT Chest2
  {
   OFFSET 0.000000 9.601200 -0.005300
   CHANNELS 3 Yrotation Xrotation Zrotation
   JOINT Chest3
   {
    OFFSET 0.000000 9.561800 0.000000
    CHANNELS 3 Yrotation Xrotation Zrotation
    JOINT Chest4
    {
     OFFSET 0.000000 9.552100 0.000000
     CHANNELS 3 Yrotation Xrotation Zrotation
     JOINT Neck
     {
      OFFSET 0.000000 14.453000 0.000000
      CHANNELS 3 Yrotation Xrotation Zrotation
      JOINT Head
      {
       OFFSET 0.000000 8.936500 -0.011300
       CHANNELS 3 Yrotation Xrotation Zrotation
       End Site
       {
        OFFSET 0.000000 17.073600 -0.006000
       }
      }
     }
     JOINT RightCollar
     {
      OFFSET -2.921100 9.558500 0.000000
      CHANNELS 3 Yrotation Xrotation Zrotation
      JOINT RightShoulder
      {
       OFFSET -13.519700 0.000000 0.000000
       CHANNELS 3 Yrotation Xrotation Zrotation
       JOINT RightElbow
       {
        OFFSET 0.000000 -29.696600 0.000000
        CHANNELS 3 Yrotation Xrotation Zrotation
        JOINT RightWrist
        {
         OFFSET 0.000000 -24.004700 0.000000
         CHANNELS 3 Yrotation Xrotation Zrotation
         End Site
         {
          OFFSET 0.000000 -17.728500 0.000000
         }
        }
       }
      }
     }
     JOINT LeftCollar
     {
      OFFSET 2.921100 9.558500 0.000000
      CHANNELS 3 Yrotation Xrotation Zrotation
      JOINT LeftShoulder
      {
       OFFSET 13.519700 0.000000 0.000000
       CHANNELS 3 Yrotation Xrotation Zrotation
       JOINT LeftElbow
       {
        OFFSET 0.000000 -29.696600 0.000000
        CHANNELS 3 Yrotation Xrotation Zrotation
        JOINT LeftWrist
        {
         OFFSET 0.000000 -24.004700 0.000000
         CHANNELS 3 Yrotation Xrotation Zrotation
         End Site
         {
          OFFSET 0.000000 -17.728500 0.000000
         }
        }
       }
      }
     }
    }
   }
  }
 }
 JOINT RightHip
 {
  OFFSET -7.771700 -0.012900 -0.001300
  CHANNELS 3 Yrotation Xrotation Zrotation
  JOINT RightKnee
  {
   OFFSET 0.000000 -40.869800 0.001200
   CHANNELS 3 Yrotation Xrotation Zrotation
   JOINT RightAnkle
   {
    OFFSET 0.000000 -39.717900 0.002100
    CHANNELS 3 Yrotation Xrotation Zrotation
    JOINT RightToe
    {
     OFFSET 0.000000 -4.965400 11.033500
     CHANNELS 3 Yrotation Xrotation Zrotation
     End Site
     {
      OFFSET 0.000000 -1.423100 5.872300
     }
    }
   }
  }
 }
 JOINT LeftHip
 {
  OFFSET 7.771700 -0.012900 -0.001300
  CHANNELS 3 Yrotation Xrotation Zrotation
  JOINT LeftKnee
  {
   OFFSET 0.000000 -40.869800 0.001200
   CHANNELS 3 Yrotation Xrotation Zrotation
   JOINT LeftAnkle
   {
    OFFSET 0.000000 -39.717900 0.002100
    CHANNELS 3 Yrotation Xrotation Zrotation
    JOINT LeftToe
    {
     OFFSET 0.000000 -4.965400 11.033500
     CHANNELS 3 Yrotation Xrotation Zrotation
     End Site
     {
      OFFSET 0.000000 -1.423100 5.872300
     }
    }
   }
  }
 }
}
MOTION
Frames: 16
Frame Time: 0.008333
10.196717 49.790342 48.816054 173.844864 -33.819499 -6.763539 6.383270 18.924049 6.762159 0.677224 2.427731 0.631674 1.112120 3.959401 1.037552 5.273946 16.274961 4.989052 -1.705701 16.719723 2.162115 -3.963795 -4.668633 4.572082 -1.668137 -1.194288 -3.321755 -0.413550 -1.476009 1.538234 51.762904 -73.419604 -65.950733 2.160939 -7.264385 8.194859 -9.631862 -0.438603 0.173007 9.059487 -2.123692 -1.958313 -86.300554 -70.334166 105.080756 8.822549 -7.024565 -17.246215 0.946354 -46.930273 10.372386 -120.964724 86.418094 -109.223646 -2.883406 -11.922563 -3.615293 -0.060770 0.687046 -0.087976 -10.438209 -50.374877 15.069227 -158.807415 81.978686 -165.461806 1.123786 -13.839973 6.234409 -0.042450 -0.210809 0.188769
10.202741 49.789361 48.808440 173.858631 -33.776360 -6.736864 6.394599 18.931784 6.765295 0.650570 2.389954 0.608244 1.138128 3.992855 1.064125 5.335838 16.308456 5.056495 -1.746398 16.726614 2.152434 -3.978661 -4.627382 4.590132 -1.740999 -1.275500 -3.371728 -0.294484 -1.515869 1.418958 51.712159 -73.424843 -65.969673 2.237388 -7.073030 8.172033 -9.745927 -0.470217 0.185073 9.021172 -2.150881 -2.020158 -86.134822 -70.275465 104.956577 8.561326 -6.567943 -18.065471 0.919653 -46.972990 10.328018 -121.498837 86.419581 -109.754219 -2.848230 -11.969413 -3.633060 -0.053502 0.701650 -0.091330 -10.380367 -50.417516 15.094234 -158.478775 81.971286 -165.217638 1.093428 -13.842477 6.307855 -0.081942 -0.202607 0.139616
10.205852 49.785033 48.806100 173.903244 -33.698593 -6.718914 6.353112 18.886906 6.734657 0.666293 2.415237 0.625521 1.183082 4.033644 1.105276 5.264067 16.240890 5.004129 -1.715399 16.780381 2.186608 -3.984867 -4.563538 4.614869 -1.707736 -1.292870 -3.327568 -0.222420 -1.534218 1.245710 51.696027 -73.478109 -65.978318 2.324771 -6.819874 8.128706 -9.784556 -0.461152 0.206258 9.010806 -2.172931 -2.059145 -85.955386 -70.157812 104.800884 8.238227 -6.028786 -19.022736 0.775638 -47.037779 10.297889 -122.384836 86.433366 -110.654407 -2.821616 -12.015110 -3.690484 -0.056921 0.700470 -0.096753 -10.354537 -50.526401 15.121115 -158.296406 81.940859 -165.107421 1.045266 -13.786403 6.381584 -0.111418 -0.249092 0.128081
10.208669 49.783840 48.799777 173.945620 -33.658614 -6.700665 6.321389 18.877896 6.710350 0.725258 2.476957 0.678564 1.141653 3.989398 1.075275 5.284384 16.246398 5.034806 -1.734057 16.803915 2.189123 -3.989999 -4.500394 4.636277 -1.703700 -1.345763 -3.308034 -0.167555 -1.534711 1.034571 51.671067 -73.592121 -65.922919 2.427156 -6.487430 8.059763 -9.858894 -0.485477 0.199951 8.977483 -2.191980 -2.100441 -85.807681 -70.002491 104.716167 7.828864 -5.378656 -20.134286 0.684350 -47.067335 10.257502 -123.026596 86.431111 -111.295218 -2.811965 -12.041990 -3.744347 -0.024502 0.682493 -0.084172 -10.298656 -50.580006 15.126614 -158.138433 81.921334 -165.000149 0.944328 -13.783662 6.433790 -0.101157 -0.247727 0.133842
10.216632 49.781299 48.798138 173.962098 -33.603322 -6.707081 6.383644 18.895155 6.791119 0.669694 2.418608 0.632434 1.141899 3.989947 1.077517 5.324064 16.276482 5.086981 -1.748905 16.826862 2.189178 -3.990836 -4.439386 4.654309 -1.697077 -1.401882 -3.300104 -0.118657 -1.528466 0.779854 51.607985 -73.783347 -65.769596 2.558750 -6.057266 7.970638 -9.920653 -0.513478 0.188212 8.916846 -2.234740 -2.150340 -85.650594 -69.817065 104.658800 7.320682 -4.594203 -21.423581 0.593411 -47.123017 10.281442 -123.523532 86.427357 -111.809075 -2.774678 -12.103841 -3.753870 -0.057037 0.705691 -0.084291 -10.265423 -50.644646 15.184521 -158.067736 81.905824 -164.968571 0.866834 -13.789912 6.485687 -0.118166 -0.241284 0.126598
10.218083 49.781009 48.791947 174.008479 -33.578542 -6.693543 6.369037 18.917481 6.791329 0.653821 2.397293 0.618310 1.142019 3.990928 1.079851 5.344745 16.305033 5.125244 -1.744959 16.858796 2.199123 -3.985401 -4.379758 4.669849 -1.663881 -1.453141 -3.283286 -0.124961 -1.513974 0.478180 51.587878 -74.041911 -65.566542 2.724117 -5.511849 7.873245 -9.956314 -0.535417 0.180839 8.896720 -2.293319 -2.205091 -85.598386 -69.627509 104.672846 6.716478 -3.673375 -22.898758 0.526761 -47.143040 10.237470 -124.083071 86.419640 -112.358861 -2.783823 -12.118954 -3.798095 -0.019786 0.685634 -0.077278 -10.192094 -50.684548 15.163641 -158.095961 81.895579 -165.025976 0.752170 -13.786868 6.528721 -0.107077 -0.240826 0.154330
10.218976 49.777111 48.792436 174.069512 -33.512475 -6.694222 6.335604 18.903024 6.791961 0.687707 2.445130 0.655546 1.108982 3.945479 1.051725 5.338507 16.317858 5.142443 -1.737975 16.888199 2.208432 -3.974192 -4.325142 4.683323 -1.617924 -1.510381 -3.273651 -0.198927 -1.483294 0.141803 51.689025 -74.341445 -65.389594 2.913397 -4.855397 7.792355 -9.986403 -0.583103 0.157318 8.889980 -2.355876 -2.255330 -85.620895 -69.441977 104.760152 6.019370 -2.641767 -24.561135 0.441805 -47.209261 10.203857 -124.705677 86.418702 -112.979679 -2.784226 -12.149449 -3.832259 -0.014760 0.668510 -0.053890 -10.142356 -50.768249 15.152317 -158.205931 81.895097 -165.157746 0.640339 -13.783801 6.574675 -0.106594 -0.230823 0.176393
10.224971 49.776719 48.790591 174.061840 -33.483663 -6.691050 6.374060 18.916907 6.831248 0.673023 2.423545 0.641770 1.156677 4.030861 1.111569 5.291662 16.276292 5.117601 -1.729870 16.911246 2.217497 -3.961182 -4.282406 4.696207 -1.564420 -1.570554 -3.278416 -0.326500 -1.433831 -0.217556 51.960510 -74.650113 -65.314914 3.120801 -4.113739 7.762236 -10.004368 -0.611326 0.145153 8.906265 -2.445272 -2.323932 -85.773937 -69.279136 104.965089 5.224626 -1.532973 -26.424543 0.381839 -47.248943 10.233515 -125.207531 86.417611 -113.503876 -2.746890 -12.184604 -3.839861 -0.052152 0.685561 -0.062323 -10.047074 -50.791027 15.176320 -158.258795 81.899801 -165.215202 0.508511 -13.843590 6.608234 -0.094987 -0.174339 0.182123
10.226859 49.775217 48.790817 174.105271 -33.436895 -6.697231 6.357230 18.919441 6.847660 0.661631 2.403916 0.628656 1.155962 4.033788 1.114157 5.289878 16.281635 5.126140 -1.725792 16.920731 2.222075 -3.928440 -4.214745 4.729853 -1.536593 -1.600691 -3.285217 -0.441732 -1.367186 -0.577599 52.427793 -74.937254 -65.402636 3.349269 -3.321114 7.819184 -10.003821 -0.612887 0.149048 8.952612 -2.533834 -2.394722 -86.019045 -69.112610 105.252861 4.348210 -0.374247 -28.497126 0.312287 -47.298769 10.224757 -125.675705 86.418694 -113.971821 -2.754651 -12.203474 -3.866528 -0.039379 0.686781 -0.060442 -9.991860 -50.869501 15.152288 -158.287732 81.883338 -165.248255 0.476657 -13.798766 6.653543 -0.113767 -0.210953 0.157657
10.228514 49.777637 48.786669 174.138820 -33.427742 -6.697705 6.350318 18.956132 6.865170 0.681449 2.447563 0.657555 1.142511 4.018730 1.102664 5.262503 16.247320 5.103904 -1.688595 16.982499 2.268855 -3.928909 -4.230371 4.737203 -1.508701 -1.630155 -3.296107 -0.561883 -1.288168 -0.950909 53.102802 -75.181986 -65.703857 3.602553 -2.513533 7.996193 -10.006464 -0.634468 0.143985 9.031274 -2.612235 -2.455769 -86.315398 -68.912900 105.588939 3.417689 0.811952 -30.779103 0.285881 -47.310259 10.196558 -126.093094 86.424241 -114.374556 -2.760093 -12.196830 -3.902678 -0.026158 0.659063 -0.039164 -9.914032 -50.890772 15.121149 -158.220866 81.873644 -165.180299 0.400875 -13.800125 6.703474 -0.092962 -0.207333 0.132244
10.229581 49.781154 48.782448 174.134167 -33.426875 -6.676856 6.374283 18.996294 6.880526 0.665123 2.417885 0.638735 1.166419 4.077842 1.137404 5.275183 16.301982 5.147052 -1.699235 16.941755 2.259799 -3.950122 -4.286839 4.719322 -1.469987 -1.749912 -3.358168 -0.701411 -1.197418 -1.333543 53.979429 -75.372733 -66.250665 3.878975 -1.732898 8.323954 -10.042642 -0.767181 0.094635 9.078170 -2.650568 -2.483652 -86.678715 -68.690997 106.053225 2.440483 1.998549 -33.265355 0.245818 -47.319739 10.193571 -126.664180 86.437010 -114.959220 -2.756323 -12.197597 -3.933406 -0.012098 0.641044 -0.029529 -9.805426 -50.878452 15.132732 -158.252062 81.884272 -165.246428 0.243324 -13.847245 6.763387 -0.071188 -0.163273 0.105689
10.226573 49.781458 48.783655 174.158782 -33.383432 -6.653949 6.358674 19.000636 6.869465 0.671449 2.421728 0.643015 1.161580 4.089490 1.138723 5.283071 16.336561 5.167455 -1.704413 16.911275 2.263672 -3.937991 -4.292965 4.758163 -1.385901 -1.833473 -3.429136 -0.846937 -1.094316 -1.680429 55.022484 -75.508833 -67.027674 4.173900 -1.019290 8.823141 -10.049442 -0.853470 0.084719 9.208842 -2.751324 -2.552228 -87.007939 -68.398136 106.377816 1.411106 3.155061 -35.939448 0.156465 -47.365237 10.180124 -127.294773 86.446670 -115.627512 -2.730278 -12.195442 -3.965273 -0.023678 0.619305 -0.022599 -9.747544 -50.941883 15.116928 -158.174829 81.876101 -165.216891 0.204306 -13.801297 6.824046 -0.096457 -0.199870 0.118767
10.225023 49.784197 48.783088 174.168159 -33.358987 -6.633059 6.349265 19.001323 6.854524 0.698710 2.499425 0.680089 1.133634 4.019764 1.103440 5.299328 16.380770 5.186031 -1.701271 16.893356 2.279694 -3.936100 -4.316588 4.788149 -1.332407 -1.898954 -3.500171 -0.931118 -0.980281 -2.007404 56.193075 -75.609144 -67.993797 4.490339 -0.388903 9.498395 -10.035936 -0.909763 0.128733 9.334373 -2.860220 -2.651671 -87.347146 -68.067669 106.699912 0.320936 4.244413 -38.784036 0.094036 -47.391619 10.171568 -127.758167 86.451249 -116.114122 -2.721531 -12.198125 -3.988772 -0.028294 0.608878 -0.024493 -9.695263 -50.966996 15.117751 -157.919435 81.870189 -164.999333 0.158492 -13.799106 6.836167 -0.093957 -0.197915 0.136835
10.225610 49.789249 48.780926 174.172633 -33.351585 -6.624237 6.351701 19.017097 6.856321 0.711407 2.526079 0.685943 1.122112 4.000175 1.099344 5.301471 16.388399 5.186012 -1.683992 16.906423 2.303996 -3.956833 -4.362889 4.780876 -1.288928 -1.930516 -3.567468 -0.982042 -0.853028 -2.319423 57.486681 -75.697768 -69.124164 4.837711 0.160739 10.342132 -10.037471 -0.942762 0.146832 9.447446 -2.946611 -2.696337 -87.698490 -67.711416 107.062558 -0.836308 5.221285 -41.775717 0.031031 -47.397601 10.177704 -128.134348 86.456235 -116.508277 -2.697325 -12.199729 -4.013510 -0.040157 0.599808 -0.029178 -9.663248 -50.971721 15.128659 -157.688905 81.861839 -164.797429 0.129714 -13.798269 6.859863 -0.087126 -0.199727 0.126664
10.225900 49.793420 48.781087 174.185947 -33.328989 -6.623207 6.359278 19.039310 6.866864 0.715482 2.526711 0.684892 1.122376 4.013135 1.104131 5.290047 16.367094 5.177071 -1.683530 16.892626 2.311705 -3.948225 -4.376879 4.828313 -1.275404 -1.965640 -3.608640 -1.008725 -0.717663 -2.652243 58.912450 -75.793949 -70.400409 5.222058 0.641719 11.335232 -10.048111 -0.978661 0.152774 9.565869 -3.039710 -2.715141 -88.039222 -67.322955 107.396819 -2.042296 6.034934 -44.870962 -0.021193 -47.416443 10.177115 -128.234840 86.441834 -116.610891 -2.677972 -12.214240 -4.039176 -0.032108 0.604553 -0.029252 -9.651722 -50.993087 15.145520 -157.484874 81.856315 -164.619739 0.106747 -13.794456 6.882216 -0.084321 -0.200990 0.114323
10.224403 49.797743 48.781347 174.200122 -33.306144 -6.615787 6.368391 19.057181 6.869249 0.703243 2.507806 0.679161 1.139053 4.045989 1.112933 5.296201 16.381759 5.180809 -1.701075 16.842776 2.316017 -3.933233 -4.428455 4.898284 -1.245245 -2.042691 -3.720304 -1.090314 -0.568529 -2.920602 60.450594 -75.916218 -71.786600 5.644556 1.072169 12.452009 -10.079183 -1.046851 0.191030 9.690737 -3.137146 -2.746578 -88.381036 -66.897812 107.700494 -3.247852 6.634503 -47.999808 -0.058849 -47.437879 10.166862 -128.415892 86.439585 -116.803562 -2.664315 -12.225458 -4.046474 -0.043713 0.607540 -0.033487 -9.627493 -51.013124 15.162612 -157.260268 81.852514 -164.438980 0.077215 -13.787822 6.931545 -0.089804 -0.204356 0.097791
